<?xml version="1.0" encoding="iso-8859-1"?>
<!-- Generator: Adobe Illustrator 19.0.0, SVG Export Plug-In . SVG Version: 6.00 Build 0)  -->
<svg version="1.1" id="Capa_1" xmlns="http://www.w3.org/2000/svg" xmlns:xlink="http://www.w3.org/1999/xlink" x="0px" y="0px"
	 viewBox="0 0 512 512" style="enable-background:new 0 0 512 512;" xml:space="preserve">
<g>
	<g>
		<path d="M509.297,432L472,245.516V0H40v245.516L2.703,432H0v80h512v-80H509.297z M70,30h372v202H70V30z M67.297,262h377.406
			l34,170H33.297L67.297,262z M482,482H30v-20h452V482z"/>
	</g>
</g>
<g>
	<g>
		<rect x="193.735" y="121.863" transform="matrix(0.7071 -0.7071 0.7071 0.7071 -20.8368 223.4203)" width="131.079" height="30"/>
	</g>
</g>
<g>
	<g>
		<polygon points="176.292,96.87 155.467,75.274 98.391,130.313 155.467,185.352 176.292,163.756 141.609,130.313 		"/>
	</g>
</g>
<g>
	<g>
		<polygon points="356.533,75.274 335.708,96.87 370.391,130.313 335.708,163.756 356.533,185.352 413.609,130.313 		"/>
	</g>
</g>
<g>
	<g>
		<rect x="180" y="382" width="152" height="30"/>
	</g>
</g>
<g>
	<g>
		<rect x="352" y="382" width="30" height="30"/>
	</g>
</g>
<g>
	<g>
		<rect x="402" y="382" width="30" height="30"/>
	</g>
</g>
<g>
	<g>
		<rect x="80" y="382" width="30" height="30"/>
	</g>
</g>
<g>
	<g>
		<rect x="130" y="382" width="30" height="30"/>
	</g>
</g>
<g>
	<g>
		<rect x="216" y="332" width="30" height="30"/>
	</g>
</g>
<g>
	<g>
		<rect x="266" y="332" width="30" height="30"/>
	</g>
</g>
<g>
	<g>
		<rect x="191" y="282" width="30" height="30"/>
	</g>
</g>
<g>
	<g>
		<rect x="241" y="282" width="30" height="30"/>
	</g>
</g>
<g>
	<g>
		<rect x="291" y="282" width="30" height="30"/>
	</g>
</g>
<g>
	<g>
		<rect x="316" y="332" width="30" height="30"/>
	</g>
</g>
<g>
	<g>
		<rect x="366" y="332" width="30" height="30"/>
	</g>
</g>
<g>
	<g>
		<rect x="116" y="332" width="30" height="30"/>
	</g>
</g>
<g>
	<g>
		<rect x="166" y="332" width="30" height="30"/>
	</g>
</g>
<g>
	<g>
		<rect x="91" y="282" width="30" height="30"/>
	</g>
</g>
<g>
	<g>
		<rect x="141" y="282" width="30" height="30"/>
	</g>
</g>
<g>
	<g>
		<rect x="341" y="282" width="30" height="30"/>
	</g>
</g>
<g>
	<g>
		<rect x="391" y="282" width="30" height="30"/>
	</g>
</g>
<g>
</g>
<g>
</g>
<g>
</g>
<g>
</g>
<g>
</g>
<g>
</g>
<g>
</g>
<g>
</g>
<g>
</g>
<g>
</g>
<g>
</g>
<g>
</g>
<g>
</g>
<g>
</g>
<g>
</g>
</svg>
